<svg width="1633" height="300" viewBox="0 0 1633 300" fill="none" xmlns="http://www.w3.org/2000/svg">
<path d="M492.238 291.94H337.285L331.765 286.416V29.2L337.679 23.6758H364.486L370.017 29.2V256.433H492.238L497.772 261.944V286.402L492.238 291.94Z" fill="black"/>
<path d="M622.747 299.829C560.058 299.829 519.445 254.855 519.445 193.315C519.445 131.775 559.661 86.7969 618.8 86.7969C676.361 86.7969 715.787 128.212 715.787 187.791V201.598L710.266 207.122H557.294C561.631 241.838 587.258 264.325 622.744 264.325C649.157 264.325 667.687 253.674 677.938 233.552L685.822 231.581L707.116 243.803L709.479 252.089C694.501 280.498 664.143 299.829 622.747 299.829ZM557.294 174.771H679.122C675.178 140.054 651.918 121.513 618.8 121.513C586.078 121.513 562.425 140.845 557.294 174.771Z" fill="black"/>
<path d="M776.401 54.4455C771.037 54.3686 765.816 52.7067 761.393 49.6687C756.971 46.6308 753.544 42.3523 751.545 37.3713C749.545 32.3902 749.062 26.9289 750.155 21.6738C751.249 16.4187 753.871 11.6044 757.692 7.83609C761.512 4.0678 766.36 1.51371 771.627 0.494881C776.894 -0.523945 782.345 0.0379783 787.294 2.11C792.242 4.18203 796.468 7.67167 799.441 12.1403C802.413 16.6089 803.999 21.857 803.999 27.2248C804.049 30.8467 803.366 34.4412 801.992 37.7923C800.617 41.1433 798.58 44.1816 796.002 46.7245C793.424 49.2673 790.358 51.2622 786.99 52.5891C783.622 53.9159 780.02 54.5474 776.401 54.4455Z" fill="black"/>
<path d="M789.807 291.931H763.787L757.869 286.407V100.202L763.39 94.6777H789.807L795.325 100.202V286.407L789.807 291.931Z" fill="black"/>
<path d="M836.753 193.311C836.753 131.767 878.542 86.7932 941.235 86.7932C958.886 86.6432 976.319 90.7003 992.092 98.6289V13.4036L997.613 7.88281H1024.03L1029.55 13.4036V133.335C1040.14 151.543 1045.71 172.233 1045.71 193.299C1045.71 214.365 1040.14 235.055 1029.55 253.263V286.402L1024.03 291.926H983.807C970.25 297.254 955.796 299.926 941.231 299.798C878.539 299.825 836.753 254.851 836.753 193.311ZM1008.26 193.311C1008.26 152.677 981.054 122.3 941.235 122.3C901.416 122.3 874.191 152.677 874.191 193.311C874.191 233.945 901.395 264.322 941.235 264.322C981.074 264.322 1008.25 233.945 1008.25 193.311H1008.26Z" fill="black"/>
<path d="M1114.2 292.678C1108.84 292.601 1103.62 290.939 1099.2 287.901C1094.77 284.863 1091.35 280.585 1089.35 275.604C1087.35 270.623 1086.86 265.161 1087.96 259.906C1089.05 254.651 1091.67 249.837 1095.49 246.069C1099.31 242.3 1104.16 239.746 1109.43 238.727C1114.7 237.708 1120.15 238.27 1125.1 240.342C1130.05 242.414 1134.27 245.904 1137.24 250.373C1140.22 254.841 1141.8 260.089 1141.8 265.457C1141.85 269.079 1141.17 272.674 1139.79 276.025C1138.42 279.376 1136.38 282.414 1133.8 284.957C1131.23 287.5 1128.16 289.495 1124.79 290.821C1121.42 292.148 1117.82 292.78 1114.2 292.678Z" fill="black"/>
<path d="M1215.78 291.564H1189.76L1183.84 286.04V99.8348L1189.36 94.3105H1215.78L1221.29 99.8348V286.04L1215.78 291.564Z" fill="black"/>
<path d="M1374.09 291.617H1347.69L1341.68 288.588V186.493L1347.29 183.464H1374.09L1379.68 186.493V288.588L1374.09 291.617Z" fill="black"/>
<path d="M1276.65 86.2721C1239.82 86.8567 1215.02 109.9 1207.22 121.349L1197.72 124.272V173.964H1221.11C1221.11 119.157 1275.92 112.58 1302.22 121.349C1323.27 128.364 1337.3 145.464 1339.49 160.08C1341.68 174.695 1341.68 184.926 1341.68 184.926V205.387H1379.68C1379.68 191.503 1380.27 157.303 1376.76 149.118C1357.76 97.9644 1322.68 85.5413 1276.65 86.2721Z" fill="black"/>
<path d="M1527.31 105.242C1574.69 105.242 1613.54 144.255 1613.54 192.934C1613.54 241.612 1574.69 280.626 1527.31 280.626C1479.93 280.626 1441.08 241.612 1441.08 192.934C1441.08 144.255 1479.93 105.242 1527.31 105.242Z" stroke="black" stroke-width="37.9998"/>
<path d="M0 57.198C0 38.5267 15.1361 23.3906 33.8073 23.3906H235.115C253.786 23.3906 268.922 38.5267 268.922 57.1979V258.505C268.922 277.176 253.786 292.313 235.115 292.313H33.8073C15.1361 292.313 0 277.176 0 258.505V57.198Z" fill="#C7E5D5"/>
<path d="M141.793 157.851C141.793 178.644 158.649 195.501 179.442 195.501C200.236 195.501 217.092 178.644 217.092 157.851C217.092 137.058 200.236 120.202 179.442 120.202C158.649 120.202 141.793 137.058 141.793 157.851Z" fill="white"/>
<path d="M171.235 157.61C171.235 169.74 181.068 179.572 193.197 179.572C205.326 179.572 215.159 169.74 215.159 157.61C215.159 145.481 205.326 135.648 193.197 135.648C181.068 135.648 171.235 145.481 171.235 157.61Z" fill="black"/>
<path d="M53.7841 157.851C53.7841 178.644 70.6403 195.501 91.4334 195.501C112.226 195.501 129.083 178.644 129.083 157.851C129.083 137.058 112.226 120.202 91.4334 120.202C70.6403 120.202 53.7841 137.058 53.7841 157.851Z" fill="white"/>
<path d="M82.4155 157.61C82.4155 169.739 92.2482 179.572 104.378 179.572C116.507 179.572 126.34 169.739 126.34 157.61C126.34 145.481 116.507 135.648 104.378 135.648C92.2482 135.648 82.4155 145.481 82.4155 157.61Z" fill="black"/>
<path d="M0 97.0719V57.198C-5.4561e-09 47.9778 6.43612 23.3906 33.8073 23.3906H77.9484H235.115C254.323 23.3906 268.922 38.7576 268.922 57.1979V97.1521C268.922 98.0007 268.245 98.6888 267.396 98.6888H148.102C95.097 98.6888 79.2475 48.49 77.9484 23.3906C77.9484 79.3124 28.0494 96.6722 1.59652 98.5901C0.71948 98.6537 0 97.9513 0 97.0719Z" fill="#4E8278"/>
</svg>
